<mxfile host="app.diagrams.net" agent="Mozilla/5.0 (Windows NT 10.0; Win64; x64) AppleWebKit/537.36 (KHTML, like Gecko) Chrome/131.0.0.0 Safari/537.36 Edg/131.0.0.0" version="25.0.3">
  <diagram name="PÃ¡gina-1" id="CWVS4EIJRuz1VnP0KnJJ">
    <mxGraphModel dx="1282" dy="661" grid="1" gridSize="10" guides="1" tooltips="1" connect="1" arrows="1" fold="1" page="1" pageScale="1" pageWidth="827" pageHeight="1169" math="0" shadow="0">
      <root>
        <mxCell id="0" />
        <mxCell id="1" parent="0" />
        <mxCell id="gXC3vSr-2lOf8VQ1cKvP-3" value="" style="rounded=0;whiteSpace=wrap;html=1;direction=south;fillColor=none;movable=1;resizable=1;rotatable=1;deletable=1;editable=1;locked=0;connectable=1;" parent="1" vertex="1">
          <mxGeometry x="40" y="120" width="160" height="300" as="geometry" />
        </mxCell>
        <mxCell id="gXC3vSr-2lOf8VQ1cKvP-4" value="" style="rounded=0;whiteSpace=wrap;html=1;fillColor=none;movable=1;resizable=1;rotatable=1;deletable=1;editable=1;locked=0;connectable=1;" parent="1" vertex="1">
          <mxGeometry x="200" y="270" width="430" height="150" as="geometry" />
        </mxCell>
        <mxCell id="gXC3vSr-2lOf8VQ1cKvP-1" value="" style="shape=image;whiteSpace=wrap;html=1;boundedLbl=1;backgroundOutline=1;size=15;labelBackgroundColor=default;verticalAlign=top;verticalLabelPosition=bottom;aspect=fixed;points=[];image=img/lib/azure2/databases/SQL_Database.svg;movable=1;resizable=1;rotatable=1;deletable=1;editable=1;locked=0;connectable=1;" parent="1" vertex="1">
          <mxGeometry x="95" y="170" width="50" height="70" as="geometry" />
        </mxCell>
        <mxCell id="gXC3vSr-2lOf8VQ1cKvP-2" value="" style="shape=mxgraph.ios7.icons.document;html=1;verticalAlign=top;verticalLabelPosition=bottom;labelBackgroundColor=#ffffff;imageAspect=0;aspect=fixed;image=https://cdn0.iconfinder.com/data/icons/octicons/1024/file-text-128.png;strokeWidth=2;strokeColor=#0080F0;shadow=0;dashed=0;movable=1;resizable=1;rotatable=1;deletable=1;editable=1;locked=0;connectable=1;" parent="1" vertex="1">
          <mxGeometry x="90" y="300" width="60" height="60" as="geometry" />
        </mxCell>
        <mxCell id="gXC3vSr-2lOf8VQ1cKvP-5" value="" style="rounded=0;whiteSpace=wrap;html=1;fillColor=none;movable=1;resizable=1;rotatable=1;deletable=1;editable=1;locked=0;connectable=1;" parent="1" vertex="1">
          <mxGeometry x="200" y="120" width="430" height="150" as="geometry" />
        </mxCell>
        <mxCell id="gXC3vSr-2lOf8VQ1cKvP-6" value="Bronze" style="shape=image;whiteSpace=wrap;html=1;boundedLbl=1;backgroundOutline=1;size=15;flipV=0;labelBackgroundColor=default;verticalAlign=top;verticalLabelPosition=bottom;aspect=fixed;image=img/lib/mscae/Data_Lake.svg;sketch=0;points=[];movable=1;resizable=1;rotatable=1;deletable=1;editable=1;locked=0;connectable=1;" parent="1" vertex="1">
          <mxGeometry x="270" y="350" width="28.57" height="40" as="geometry" />
        </mxCell>
        <mxCell id="gXC3vSr-2lOf8VQ1cKvP-29" style="edgeStyle=orthogonalEdgeStyle;rounded=0;orthogonalLoop=1;jettySize=auto;html=1;movable=1;resizable=1;rotatable=1;deletable=1;editable=1;locked=0;connectable=1;" parent="1" source="gXC3vSr-2lOf8VQ1cKvP-7" target="gXC3vSr-2lOf8VQ1cKvP-28" edge="1">
          <mxGeometry relative="1" as="geometry" />
        </mxCell>
        <mxCell id="fU7QcG5bV7GN8CoHxMuV-5" style="edgeStyle=orthogonalEdgeStyle;rounded=0;orthogonalLoop=1;jettySize=auto;html=1;dashed=1;endArrow=none;endFill=0;movable=1;resizable=1;rotatable=1;deletable=1;editable=1;locked=0;connectable=1;" parent="1" source="gXC3vSr-2lOf8VQ1cKvP-7" target="fU7QcG5bV7GN8CoHxMuV-3" edge="1">
          <mxGeometry relative="1" as="geometry" />
        </mxCell>
        <mxCell id="gXC3vSr-2lOf8VQ1cKvP-7" value="Silver" style="shape=image;whiteSpace=wrap;html=1;boundedLbl=1;backgroundOutline=1;size=15;flipV=0;labelBackgroundColor=default;verticalAlign=top;verticalLabelPosition=bottom;aspect=fixed;image=img/lib/mscae/Data_Lake.svg;sketch=0;points=[];movable=1;resizable=1;rotatable=1;deletable=1;editable=1;locked=0;connectable=1;" parent="1" vertex="1">
          <mxGeometry x="410" y="350" width="28.57" height="40" as="geometry" />
        </mxCell>
        <mxCell id="gXC3vSr-2lOf8VQ1cKvP-9" value="" style="rounded=0;whiteSpace=wrap;html=1;direction=south;fillColor=none;movable=1;resizable=1;rotatable=1;deletable=1;editable=1;locked=0;connectable=1;" parent="1" vertex="1">
          <mxGeometry x="630" y="120" width="160" height="300" as="geometry" />
        </mxCell>
        <mxCell id="gXC3vSr-2lOf8VQ1cKvP-20" style="edgeStyle=orthogonalEdgeStyle;rounded=0;orthogonalLoop=1;jettySize=auto;html=1;movable=1;resizable=1;rotatable=1;deletable=1;editable=1;locked=0;connectable=1;" parent="1" source="gXC3vSr-2lOf8VQ1cKvP-8" target="YEA_qPoFGQCJmBndnpJY-8" edge="1">
          <mxGeometry relative="1" as="geometry">
            <mxPoint x="810" y="195" as="targetPoint" />
            <Array as="points">
              <mxPoint x="780" y="270" />
              <mxPoint x="780" y="191" />
            </Array>
          </mxGeometry>
        </mxCell>
        <mxCell id="gXC3vSr-2lOf8VQ1cKvP-21" style="edgeStyle=orthogonalEdgeStyle;rounded=0;orthogonalLoop=1;jettySize=auto;html=1;entryX=-0.04;entryY=0.452;entryDx=0;entryDy=0;entryPerimeter=0;movable=1;resizable=1;rotatable=1;deletable=1;editable=1;locked=0;connectable=1;" parent="1" source="gXC3vSr-2lOf8VQ1cKvP-8" target="YEA_qPoFGQCJmBndnpJY-10" edge="1">
          <mxGeometry relative="1" as="geometry">
            <mxPoint x="810" y="319.9999999999999" as="targetPoint" />
            <Array as="points">
              <mxPoint x="780" y="270" />
              <mxPoint x="780" y="321" />
            </Array>
          </mxGeometry>
        </mxCell>
        <mxCell id="gXC3vSr-2lOf8VQ1cKvP-8" value="" style="shape=image;whiteSpace=wrap;html=1;boundedLbl=1;backgroundOutline=1;size=15;flipV=0;labelBackgroundColor=default;verticalAlign=top;verticalLabelPosition=bottom;aspect=fixed;points=[];image=img/lib/azure2/analytics/Azure_Synapse_Analytics.svg;movable=1;resizable=1;rotatable=1;deletable=1;editable=1;locked=0;connectable=1;" parent="1" vertex="1">
          <mxGeometry x="685" y="235" width="50" height="70" as="geometry" />
        </mxCell>
        <mxCell id="fU7QcG5bV7GN8CoHxMuV-10" style="edgeStyle=orthogonalEdgeStyle;rounded=0;orthogonalLoop=1;jettySize=auto;html=1;fontFamily=Helvetica;fontSize=12;fontColor=default;movable=1;resizable=1;rotatable=1;deletable=1;editable=1;locked=0;connectable=1;" parent="1" source="gXC3vSr-2lOf8VQ1cKvP-10" edge="1">
          <mxGeometry relative="1" as="geometry">
            <mxPoint x="709.9999999999998" y="240" as="targetPoint" />
          </mxGeometry>
        </mxCell>
        <mxCell id="gXC3vSr-2lOf8VQ1cKvP-10" value="Stream processing" style="rounded=0;whiteSpace=wrap;html=1;fillColor=none;shape=image;labelBackgroundColor=default;verticalAlign=top;verticalLabelPosition=bottom;aspect=fixed;points=[];image=img/lib/azure2/analytics/Event_Hubs.svg;movable=1;resizable=1;rotatable=1;deletable=1;editable=1;locked=0;connectable=1;" parent="1" vertex="1">
          <mxGeometry x="354" y="165" width="120" height="60" as="geometry" />
        </mxCell>
        <mxCell id="gXC3vSr-2lOf8VQ1cKvP-11" value="" style="rounded=0;whiteSpace=wrap;html=1;direction=south;fillColor=none;movable=1;resizable=1;rotatable=1;deletable=1;editable=1;locked=0;connectable=1;" parent="1" vertex="1">
          <mxGeometry x="790" y="120" width="160" height="300" as="geometry" />
        </mxCell>
        <mxCell id="gXC3vSr-2lOf8VQ1cKvP-22" value="" style="rounded=0;whiteSpace=wrap;html=1;fillColor=none;strokeColor=default;movable=1;resizable=1;rotatable=1;deletable=1;editable=1;locked=0;connectable=1;" parent="1" vertex="1">
          <mxGeometry x="40" y="420" width="910" height="100" as="geometry" />
        </mxCell>
        <mxCell id="gXC3vSr-2lOf8VQ1cKvP-17" style="edgeStyle=orthogonalEdgeStyle;rounded=0;orthogonalLoop=1;jettySize=auto;html=1;entryX=0;entryY=0.501;entryDx=0;entryDy=0;entryPerimeter=0;movable=1;resizable=1;rotatable=1;deletable=1;editable=1;locked=0;connectable=1;" parent="1" source="gXC3vSr-2lOf8VQ1cKvP-6" target="gXC3vSr-2lOf8VQ1cKvP-7" edge="1">
          <mxGeometry relative="1" as="geometry" />
        </mxCell>
        <mxCell id="gXC3vSr-2lOf8VQ1cKvP-24" value="Cost management" style="rounded=0;whiteSpace=wrap;html=1;shape=image;labelBackgroundColor=default;verticalAlign=top;verticalLabelPosition=bottom;aspect=fixed;points=[];image=img/lib/azure2/general/Cost_Management_and_Billing.svg;movable=1;resizable=1;rotatable=1;deletable=1;editable=1;locked=0;connectable=1;" parent="1" vertex="1">
          <mxGeometry x="200" y="440" width="80" height="40" as="geometry" />
        </mxCell>
        <mxCell id="gXC3vSr-2lOf8VQ1cKvP-25" value="Monitoring" style="rounded=0;whiteSpace=wrap;html=1;shape=image;labelBackgroundColor=default;verticalAlign=top;verticalLabelPosition=bottom;aspect=fixed;points=[];image=img/lib/azure2/management_governance/Monitor.svg;movable=1;resizable=1;rotatable=1;deletable=1;editable=1;locked=0;connectable=1;" parent="1" vertex="1">
          <mxGeometry x="400" y="440" width="80" height="40" as="geometry" />
        </mxCell>
        <mxCell id="gXC3vSr-2lOf8VQ1cKvP-26" value="Key vault" style="rounded=0;whiteSpace=wrap;html=1;shape=image;labelBackgroundColor=default;verticalAlign=top;verticalLabelPosition=bottom;aspect=fixed;points=[];image=img/lib/azure2/security/Key_Vaults.svg;movable=1;resizable=1;rotatable=1;deletable=1;editable=1;locked=0;connectable=1;" parent="1" vertex="1">
          <mxGeometry x="601.4" y="440" width="80" height="40" as="geometry" />
        </mxCell>
        <mxCell id="gXC3vSr-2lOf8VQ1cKvP-28" value="Gold" style="shape=image;whiteSpace=wrap;html=1;boundedLbl=1;backgroundOutline=1;size=15;flipV=0;labelBackgroundColor=default;verticalAlign=top;verticalLabelPosition=bottom;aspect=fixed;image=img/lib/mscae/Data_Lake.svg;sketch=0;points=[];movable=1;resizable=1;rotatable=1;deletable=1;editable=1;locked=0;connectable=1;" parent="1" vertex="1">
          <mxGeometry x="552.8" y="350" width="28.57" height="40" as="geometry" />
        </mxCell>
        <mxCell id="gXC3vSr-2lOf8VQ1cKvP-30" style="edgeStyle=orthogonalEdgeStyle;rounded=0;orthogonalLoop=1;jettySize=auto;html=1;entryX=0.5;entryY=1;entryDx=0;entryDy=0;entryPerimeter=0;movable=1;resizable=1;rotatable=1;deletable=1;editable=1;locked=0;connectable=1;" parent="1" source="gXC3vSr-2lOf8VQ1cKvP-28" target="gXC3vSr-2lOf8VQ1cKvP-8" edge="1">
          <mxGeometry relative="1" as="geometry" />
        </mxCell>
        <mxCell id="gXC3vSr-2lOf8VQ1cKvP-35" style="edgeStyle=orthogonalEdgeStyle;rounded=0;orthogonalLoop=1;jettySize=auto;html=1;exitX=0;exitY=0.5;exitDx=0;exitDy=0;entryX=0;entryY=0.5;entryDx=0;entryDy=0;entryPerimeter=0;movable=1;resizable=1;rotatable=1;deletable=1;editable=1;locked=0;connectable=1;" parent="1" target="gXC3vSr-2lOf8VQ1cKvP-6" edge="1">
          <mxGeometry relative="1" as="geometry">
            <mxPoint x="200" y="369.9999999999999" as="sourcePoint" />
          </mxGeometry>
        </mxCell>
        <mxCell id="YEA_qPoFGQCJmBndnpJY-8" value="" style="image;aspect=fixed;html=1;points=[];align=center;fontSize=12;image=img/lib/azure2/analytics/Power_BI_Embedded.svg;movable=1;resizable=1;rotatable=1;deletable=1;editable=1;locked=0;connectable=1;" parent="1" vertex="1">
          <mxGeometry x="850" y="157" width="51" height="68" as="geometry" />
        </mxCell>
        <mxCell id="YEA_qPoFGQCJmBndnpJY-10" value="" style="image;aspect=fixed;html=1;points=[];align=center;fontSize=12;image=img/lib/azure2/ai_machine_learning/Machine_Learning.svg;movable=1;resizable=1;rotatable=1;deletable=1;editable=1;locked=0;connectable=1;" parent="1" vertex="1">
          <mxGeometry x="843.5" y="290" width="64" height="68" as="geometry" />
        </mxCell>
        <mxCell id="YEA_qPoFGQCJmBndnpJY-11" value="&lt;div&gt;Machine Learning&lt;/div&gt;" style="text;html=1;align=center;verticalAlign=middle;resizable=1;points=[];autosize=1;strokeColor=none;fillColor=none;movable=1;rotatable=1;deletable=1;editable=1;locked=0;connectable=1;" parent="1" vertex="1">
          <mxGeometry x="810" y="360" width="120" height="30" as="geometry" />
        </mxCell>
        <mxCell id="YEA_qPoFGQCJmBndnpJY-12" value="&lt;div&gt;BI &amp;amp; Analytics&lt;/div&gt;" style="text;html=1;align=center;verticalAlign=middle;resizable=1;points=[];autosize=1;strokeColor=none;fillColor=none;movable=1;rotatable=1;deletable=1;editable=1;locked=0;connectable=1;" parent="1" vertex="1">
          <mxGeometry x="820" y="225" width="100" height="30" as="geometry" />
        </mxCell>
        <mxCell id="YEA_qPoFGQCJmBndnpJY-13" value="&lt;div&gt;Speed Layer&lt;/div&gt;" style="text;html=1;align=center;verticalAlign=middle;resizable=1;points=[];autosize=1;strokeColor=none;fillColor=none;movable=1;rotatable=1;deletable=1;editable=1;locked=0;connectable=1;" parent="1" vertex="1">
          <mxGeometry x="200" y="120" width="90" height="30" as="geometry" />
        </mxCell>
        <mxCell id="YEA_qPoFGQCJmBndnpJY-14" value="&lt;div&gt;Batch Layer&lt;/div&gt;" style="text;html=1;align=center;verticalAlign=middle;resizable=1;points=[];autosize=1;strokeColor=none;fillColor=none;movable=1;rotatable=1;deletable=1;editable=1;locked=0;connectable=1;" parent="1" vertex="1">
          <mxGeometry x="200" y="270" width="90" height="30" as="geometry" />
        </mxCell>
        <mxCell id="YEA_qPoFGQCJmBndnpJY-15" value="&lt;div&gt;Source&lt;/div&gt;" style="text;html=1;align=center;verticalAlign=middle;resizable=1;points=[];autosize=1;strokeColor=none;fillColor=none;movable=1;rotatable=1;deletable=1;editable=1;locked=0;connectable=1;" parent="1" vertex="1">
          <mxGeometry x="40" y="120" width="60" height="30" as="geometry" />
        </mxCell>
        <mxCell id="YEA_qPoFGQCJmBndnpJY-16" value="&lt;div&gt;Consumer&lt;/div&gt;" style="text;html=1;align=center;verticalAlign=middle;resizable=1;points=[];autosize=1;strokeColor=none;fillColor=none;movable=1;rotatable=1;deletable=1;editable=1;locked=0;connectable=1;" parent="1" vertex="1">
          <mxGeometry x="790" y="120" width="80" height="30" as="geometry" />
        </mxCell>
        <mxCell id="YEA_qPoFGQCJmBndnpJY-17" value="Serving Layer" style="text;html=1;align=center;verticalAlign=middle;resizable=1;points=[];autosize=1;strokeColor=none;fillColor=none;movable=1;rotatable=1;deletable=1;editable=1;locked=0;connectable=1;" parent="1" vertex="1">
          <mxGeometry x="630" y="127" width="100" height="30" as="geometry" />
        </mxCell>
        <mxCell id="YEA_qPoFGQCJmBndnpJY-19" value="Purview" style="rounded=0;whiteSpace=wrap;html=1;shape=image;labelBackgroundColor=default;verticalAlign=top;verticalLabelPosition=bottom;aspect=fixed;image=img/lib/azure2/databases/Azure_Purview_Accounts.svg;points=[];movable=1;resizable=1;rotatable=1;deletable=1;editable=1;locked=0;connectable=1;" parent="1" vertex="1">
          <mxGeometry x="805" y="440" width="80" height="40" as="geometry" />
        </mxCell>
        <mxCell id="YEA_qPoFGQCJmBndnpJY-21" value="&lt;div&gt;Policies &amp;amp; Governance&lt;/div&gt;" style="text;html=1;align=center;verticalAlign=middle;resizable=1;points=[];autosize=1;strokeColor=none;fillColor=none;movable=1;rotatable=1;deletable=1;editable=1;locked=0;connectable=1;" parent="1" vertex="1">
          <mxGeometry x="40" y="420" width="150" height="30" as="geometry" />
        </mxCell>
        <mxCell id="fU7QcG5bV7GN8CoHxMuV-3" value="" style="image;aspect=fixed;html=1;points=[];align=center;fontSize=12;image=img/lib/azure2/databases/Data_Factory.svg;movable=1;resizable=1;rotatable=1;deletable=1;editable=1;locked=0;connectable=1;" parent="1" vertex="1">
          <mxGeometry x="410" y="280" width="30" height="30" as="geometry" />
        </mxCell>
        <mxCell id="fU7QcG5bV7GN8CoHxMuV-4" style="edgeStyle=orthogonalEdgeStyle;rounded=0;orthogonalLoop=1;jettySize=auto;html=1;entryX=-0.028;entryY=0.656;entryDx=0;entryDy=0;entryPerimeter=0;dashed=1;endArrow=none;endFill=0;movable=1;resizable=1;rotatable=1;deletable=1;editable=1;locked=0;connectable=1;" parent="1" source="gXC3vSr-2lOf8VQ1cKvP-6" target="fU7QcG5bV7GN8CoHxMuV-3" edge="1">
          <mxGeometry relative="1" as="geometry">
            <Array as="points">
              <mxPoint x="284" y="305" />
              <mxPoint x="409" y="305" />
            </Array>
          </mxGeometry>
        </mxCell>
        <mxCell id="fU7QcG5bV7GN8CoHxMuV-6" style="edgeStyle=orthogonalEdgeStyle;rounded=0;orthogonalLoop=1;jettySize=auto;html=1;entryX=1.028;entryY=0.628;entryDx=0;entryDy=0;entryPerimeter=0;dashed=1;endArrow=none;endFill=0;movable=1;resizable=1;rotatable=1;deletable=1;editable=1;locked=0;connectable=1;" parent="1" source="gXC3vSr-2lOf8VQ1cKvP-28" target="fU7QcG5bV7GN8CoHxMuV-3" edge="1">
          <mxGeometry relative="1" as="geometry">
            <Array as="points">
              <mxPoint x="567" y="305" />
              <mxPoint x="441" y="305" />
            </Array>
          </mxGeometry>
        </mxCell>
        <mxCell id="fU7QcG5bV7GN8CoHxMuV-8" style="edgeStyle=orthogonalEdgeStyle;rounded=0;orthogonalLoop=1;jettySize=auto;html=1;exitX=0;exitY=0.5;exitDx=0;exitDy=0;movable=1;resizable=1;rotatable=1;deletable=1;editable=1;locked=0;connectable=1;" parent="1" target="gXC3vSr-2lOf8VQ1cKvP-10" edge="1">
          <mxGeometry relative="1" as="geometry">
            <mxPoint x="200" y="194.65999999999988" as="sourcePoint" />
            <mxPoint x="270" y="194.66" as="targetPoint" />
          </mxGeometry>
        </mxCell>
      </root>
    </mxGraphModel>
  </diagram>
</mxfile>
